<svg width="24.000000" height="24.000000" viewBox="0 0 24 24" fill="none" xmlns="http://www.w3.org/2000/svg" xmlns:xlink="http://www.w3.org/1999/xlink">
	<desc>
			Created with Pixso.
	</desc>
	<defs>
		<clipPath id="clip13_11206">
			<rect id="Frame" width="24.000000" height="24.000000" transform="translate(0.000000 -0.500000)" fill="white" fill-opacity="0"/>
		</clipPath>
	</defs>
	<rect id="Frame" width="24.000000" height="24.000000" transform="translate(0.000000 -0.500000)" fill="#FFFFFF" fill-opacity="0"/>
	<g clip-path="url(#clip13_11206)">
		<path id="Vector" d="M14.12 12.12C13.55 12.68 12.79 13 12 13C11.2 13 10.44 12.68 9.87 12.12C9.31 11.55 9 10.79 9 10C9 9.2 9.31 8.44 9.87 7.87C10.44 7.31 11.2 7 12 7C12.79 7 13.55 7.31 14.12 7.87C14.68 8.44 15 9.2 15 10C15 10.79 14.68 11.55 14.12 12.12Z" stroke="#424242" stroke-opacity="1.000000" stroke-width="1.500000" stroke-linejoin="round"/>
		<path id="Vector" d="M12 21.25C12 21.25 4.5 17.14 4.5 10C4.5 8.01 5.29 6.1 6.69 4.69C8.1 3.29 10.01 2.5 12 2.5C13.98 2.5 15.89 3.29 17.3 4.69C18.7 6.1 19.5 8.01 19.5 10C19.5 17.14 12 21.25 12 21.25Z" stroke="#424242" stroke-opacity="1.000000" stroke-width="1.500000" stroke-linejoin="round"/>
	</g>
</svg>
