<svg width="17.000000" height="21.000000" viewBox="0 0 17 21" fill="none" xmlns="http://www.w3.org/2000/svg" xmlns:xlink="http://www.w3.org/1999/xlink">
	<desc>
			Created with Pixso.
	</desc>
	<defs/>
	<path id="Vector" d="M15.5 12.25L15.5 9.62C15.5 8.72 15.14 7.87 14.51 7.23C13.87 6.6 13.02 6.25 12.12 6.25L10.62 6.25C10.32 6.25 10.04 6.13 9.82 5.92C9.61 5.7 9.5 5.42 9.5 5.12L9.5 3.62C9.5 2.72 9.14 1.87 8.51 1.23C7.87 0.6 7.02 0.25 6.12 0.25L4.25 0.25M5 14.5L5 15.25M8 12.25L8 15.25M11 10L11 15.25M1.62 0.25C1 0.25 0.5 0.75 0.5 1.37L0.5 18.62C0.5 19.24 1 19.75 1.62 19.75L14.37 19.75C14.99 19.75 15.5 19.24 15.5 18.62L15.5 9.25C15.5 6.86 14.55 4.57 12.86 2.88C11.17 1.19 8.88 0.25 6.5 0.25L1.62 0.25Z" stroke="#131313" stroke-opacity="0.600000" stroke-width="1.500000" stroke-linejoin="round"/>
</svg>
