<svg width="21.000000" height="19.000000" viewBox="0 0 21 19" fill="none" xmlns="http://www.w3.org/2000/svg" xmlns:xlink="http://www.w3.org/1999/xlink">
	<desc>
			Created with Pixso.
	</desc>
	<defs/>
	<path id="Vector" d="M13 16.12C13.85 16.37 14.73 16.5 15.62 16.5C17.05 16.5 18.46 16.17 19.74 15.54C19.78 14.65 19.52 13.76 19.01 13.02C18.5 12.29 17.77 11.73 16.92 11.45C16.06 11.17 15.14 11.17 14.29 11.46C13.44 11.75 12.71 12.31 12.21 13.05M13 16.12C13 15.01 12.71 13.96 12.21 13.05C11.53 11.81 10.45 10.83 9.15 10.27C7.85 9.7 6.41 9.59 5.03 9.94C3.66 10.29 2.45 11.09 1.58 12.21C0.71 13.33 0.24 14.7 0.24 16.12L0.25 16.23C2.11 17.35 4.29 18 6.62 18C8.87 18 11.07 17.39 13 16.23L13 16.12L13 16.12ZM9.01 5.76C8.37 6.39 7.52 6.75 6.62 6.75C5.72 6.75 4.87 6.39 4.23 5.76C3.6 5.12 3.25 4.27 3.25 3.37C3.25 2.47 3.6 1.62 4.23 0.98C4.87 0.35 5.72 0 6.62 0C7.52 0 8.37 0.35 9.01 0.98C9.64 1.62 10 2.47 10 3.37C10 4.27 9.64 5.12 9.01 5.76ZM17.48 7.48C16.98 7.97 16.32 8.25 15.62 8.25C14.92 8.25 14.26 7.97 13.76 7.48C13.27 6.98 13 6.32 13 5.62C13 4.92 13.27 4.26 13.76 3.76C14.26 3.27 14.92 3 15.62 3C16.32 3 16.98 3.27 17.48 3.76C17.97 4.26 18.25 4.92 18.25 5.62C18.25 6.32 17.97 6.98 17.48 7.48Z" stroke="#131313" stroke-opacity="0.600000" stroke-width="1.500000" stroke-linejoin="round"/>
</svg>
